<svg xmlns="http://www.w3.org/2000/svg" width="221.993" height="71.812" viewBox="0 0 221.993 71.812">
    <g data-name="Group 6">
        <path data-name="Path 12" d="m196.528 270.542-41.4-35.148a3.892 3.892 0 0 1-1.373-2.968V210a3.894 3.894 0 0 1 6.414-2.969l41.4 35.148a3.9 3.9 0 0 1 1.374 2.969v22.425a3.894 3.894 0 0 1-6.414 2.969" transform="translate(-153.75 -206.099)" style="fill:#ffdede"/>
        <path data-name="Path 13" d="M199.025 231.892a3.826 3.826 0 0 0-2.5.933l-14.391 12.217 19.225 16.321.206-.175a3.892 3.892 0 0 0 1.374-2.968v-22.426a3.9 3.9 0 0 0-3.915-3.9m-36.115 29.47-7.787 6.611a3.894 3.894 0 0 0-1.374 2.969v22.425a3.9 3.9 0 0 0 3.915 3.9 3.828 3.828 0 0 0 2.5-.933l21.973-18.653z" transform="translate(-153.748 -225.456)" style="fill:#8ae8d9"/>
        <path data-name="Path 14" d="m209.69 284.592-19.225 16.321 19.225 16.32 19.225-16.32z" transform="translate(-181.303 -265.007)" style="fill:#8ac9bd"/>
        <path data-name="Path 15" d="m209.6 284.592.019 32.641-19.251-16.3z" transform="translate(-181.23 -265.007)" style="fill:#ff4745"/>
        <g data-name="Group 4">
            <path data-name="Path 16" d="M454.456 313.654a1.061 1.061 0 0 1-.822-.314 1.13 1.13 0 0 1-.29-.8v-31.556a1.2 1.2 0 0 1 .29-.846 1.063 1.063 0 0 1 .822-.314h19.96a1.063 1.063 0 0 1 .821.314 1.2 1.2 0 0 1 .29.846v1.836a1.01 1.01 0 0 1-1.112 1.112h-16.431v10.584h15.369a1.063 1.063 0 0 1 .821.314 1.2 1.2 0 0 1 .29.846v1.788a1.128 1.128 0 0 1-.29.8 1.06 1.06 0 0 1-.821.314h-15.369v10.97H474.8a1.01 1.01 0 0 1 1.112 1.112v1.885a1.129 1.129 0 0 1-.29.8 1.062 1.062 0 0 1-.822.314z" transform="translate(-378.589 -261.429)" style="fill:#fff"/>
            <path data-name="Path 17" d="M569.5 312.2a1.074 1.074 0 0 1-1.112-1.112V279a1.075 1.075 0 0 1 1.112-1.112h2.271a1.075 1.075 0 0 1 1.116 1.112v16.818l9.521-7.926a6.172 6.172 0 0 1 .894-.652 2.334 2.334 0 0 1 1.039-.169h2.559a.991.991 0 0 1 1.015 1.015.994.994 0 0 1-.12.435 1.412 1.412 0 0 1-.46.483l-11.164 9.279 12.372 12.034q.58.484.58.87a.991.991 0 0 1-1.015 1.015H585.6a2.494 2.494 0 0 1-1.063-.169 4.234 4.234 0 0 1-.87-.653l-10.777-10.294v10a1.074 1.074 0 0 1-1.112 1.112z" transform="translate(-464.93 -259.975)" style="fill:#fff"/>
            <path data-name="Path 18" d="M669.81 312.2a8.3 8.3 0 0 1-4.4-1.039 6 6 0 0 1-2.465-2.948 12 12 0 0 1-.773-4.519v-12.758H658.4a1.075 1.075 0 0 1-1.112-1.112v-1.643a1.075 1.075 0 0 1 1.112-1.112h3.769V279a1.075 1.075 0 0 1 1.112-1.112h2.271a1.075 1.075 0 0 1 1.117 1.112v8.071h5.993a1.063 1.063 0 0 1 .821.314 1.131 1.131 0 0 1 .29.8v1.643a1.129 1.129 0 0 1-.29.8 1.061 1.061 0 0 1-.821.314h-5.993v12.42a7.011 7.011 0 0 0 .773 3.576 2.931 2.931 0 0 0 2.755 1.3h2.948a1.075 1.075 0 0 1 1.112 1.112v1.74a1.074 1.074 0 0 1-1.112 1.112z" transform="translate(-531.649 -259.975)" style="fill:#fff"/>
            <path data-name="Path 19" d="M745.5 338.848a9.9 9.9 0 0 1-4.4-.966 8.495 8.495 0 0 1-3.19-2.61 6.12 6.12 0 0 1-1.208-3.721 6.258 6.258 0 0 1 2.706-5.316 15.547 15.547 0 0 1 7.056-2.61l7.2-1.015v-1.4a4.848 4.848 0 0 0-1.329-3.625 6.013 6.013 0 0 0-4.325-1.3 6.329 6.329 0 0 0-3.48.87 4.636 4.636 0 0 0-1.885 2.223 1.027 1.027 0 0 1-1.015.725h-2.175a.982.982 0 0 1-.8-.314 1.12 1.12 0 0 1-.266-.749 4.057 4.057 0 0 1 .556-1.788 7.335 7.335 0 0 1 1.716-2.078 9.892 9.892 0 0 1 2.972-1.715 12.31 12.31 0 0 1 4.422-.7 13.893 13.893 0 0 1 4.881.749 7.866 7.866 0 0 1 3.117 2.006 7.688 7.688 0 0 1 1.643 2.852 10.62 10.62 0 0 1 .508 3.238v15.658a1.074 1.074 0 0 1-1.112 1.112h-2.223a1.061 1.061 0 0 1-.821-.314 1.129 1.129 0 0 1-.29-.8v-2.078a8.845 8.845 0 0 1-4.35 3.117 12 12 0 0 1-3.908.549zm1.015-3.625a7.8 7.8 0 0 0 3.625-.846 6.008 6.008 0 0 0 2.586-2.634 9.57 9.57 0 0 0 .943-4.495V325.9l-5.606.821a12.949 12.949 0 0 0-5.171 1.619 3.352 3.352 0 0 0-1.74 2.875 3.25 3.25 0 0 0 .8 2.247 4.8 4.8 0 0 0 2.03 1.329 7.567 7.567 0 0 0 2.531.432z" transform="translate(-591.244 -286.14)" style="fill:#fff"/>
        </g>
        <g data-name="Group 5">
            <path data-name="Path 20" d="M846.921 291.588a.618.618 0 0 1-.479-.183.658.658 0 0 1-.169-.465v-18.4a.7.7 0 0 1 .169-.493.619.619 0 0 1 .479-.183h1.3a.731.731 0 0 1 .7.395l9.354 14.37v-14.088a.7.7 0 0 1 .169-.493.619.619 0 0 1 .479-.183h1.352a.631.631 0 0 1 .676.676v18.371a.679.679 0 0 1-.183.479.606.606 0 0 1-.465.2h-1.352a.6.6 0 0 1-.465-.169 4.956 4.956 0 0 0-.211-.225l-9.326-14.229v13.972a.631.631 0 0 1-.183.465.667.667 0 0 1-.493.183z" transform="translate(-673.475 -253.953)" style="fill:#fff"/>
            <path data-name="Path 21" d="M925.4 291.588a.618.618 0 0 1-.479-.183.658.658 0 0 1-.169-.465v-18.4a.7.7 0 0 1 .169-.493.619.619 0 0 1 .479-.183h11.5a.631.631 0 0 1 .676.676v1.127a.62.62 0 0 1-.183.479.7.7 0 0 1-.493.169h-9.411v6.565h8.847a.631.631 0 0 1 .676.676v1.127a.63.63 0 0 1-.183.465.666.666 0 0 1-.493.183h-8.847v7.608a.63.63 0 0 1-.183.465.667.667 0 0 1-.493.183z" transform="translate(-732.371 -253.953)" style="fill:#fff"/>
            <path data-name="Path 22" d="M990.4 291.588a.627.627 0 0 1-.648-.648v-16.567h-5.41a.627.627 0 0 1-.648-.648v-1.183a.666.666 0 0 1 .183-.493.63.63 0 0 1 .465-.183h13.581a.632.632 0 0 1 .676.676v1.183a.63.63 0 0 1-.183.465.666.666 0 0 1-.493.183h-5.382v16.567a.63.63 0 0 1-.183.465.666.666 0 0 1-.493.183z" transform="translate(-776.608 -253.953)" style="fill:#fff"/>
        </g>
    </g>
</svg>
