<svg xmlns="http://www.w3.org/2000/svg" width="34" height="34" viewBox="0 0 34 34">
    <defs>
        <radialGradient id="08zl08zqra" cx=".5" cy=".5" r=".5" gradientUnits="objectBoundingBox">
            <stop offset="0" stop-color="#e2836f"/>
            <stop offset="1" stop-color="#dc5950"/>
        </radialGradient>
        <radialGradient id="xblqvlr8xb" cx=".265" cy="-.014" r="1.048" gradientUnits="objectBoundingBox">
            <stop offset="0" stop-color="#dc5950"/>
            <stop offset="1" stop-color="#e2836f"/>
        </radialGradient>
    </defs>
    <g data-name="Group 2792">
        <g data-name="Group 36">
            <circle data-name="Ellipse 9" cx="17" cy="17" r="17" style="fill:url(#08zl08zqra)"/>
            <circle data-name="Ellipse 10" cx="13.584" cy="13.584" r="13.584" transform="translate(3.416 3.416)" style="fill:url(#xblqvlr8xb)"/>
        </g>
        <g data-name="Group 37">
            <path data-name="Path 83" d="M532.238 447.962a3.308 3.308 0 0 1-1.14-2.163 7.514 7.514 0 0 0-.664-2.4 3.819 3.819 0 0 0-2.543-1.665 11.337 11.337 0 0 0-3.117-.083 4.278 4.278 0 0 1 7.217 1.088c.073.172.224.389.392.305.128-.064.119-.246.1-.387a5.191 5.191 0 0 1 1.007-3.917c-.487-.045-.763.52-1.11.865a2.248 2.248 0 0 1-1.873.479c-.662-.083-1.3-.312-1.963-.384a5.516 5.516 0 0 0-4.769 2.344 2.243 2.243 0 0 1 1.524-2.285 11.176 11.176 0 0 1 2.926-.489 10.482 10.482 0 0 0 3.126-.9 2.591 2.591 0 0 0 1.188-.967c.36-.643.038-.773-.4-1.165-.792-.7-1.006-1.967-2.018-2.446a.573.573 0 0 0-.455-.053.782.782 0 0 0-.3.295 3.053 3.053 0 0 1-1.2.968c-1.03.464-2.261.332-3.27.841a3.806 3.806 0 0 0-1.832 2.567 11.267 11.267 0 0 0-.135 3.241 4.364 4.364 0 0 1 1.553-7.442c-.224-.3-.676-.267-1.053-.242a4.925 4.925 0 0 1-3.375-1.072c-.084.488.5.781.85 1.13a2.252 2.252 0 0 1 .484 1.909c-.089.675-.328 1.324-.394 2a5.615 5.615 0 0 0 2.36 4.708 2.175 2.175 0 0 1-2.119-1.179 6.252 6.252 0 0 1-.626-2.485 13.3 13.3 0 0 0-.66-3.4 3.57 3.57 0 0 0-1.216-1.694.739.739 0 0 0-.753-.135 1.086 1.086 0 0 0-.309.353c-.629.89-1.923 1.128-2.514 2.043a.666.666 0 0 0-.127.535c.062.2.268.321.44.448a3.506 3.506 0 0 1 1.14 2.216 7.254 7.254 0 0 0 .711 2.434 3.837 3.837 0 0 0 2.531 1.606 11.382 11.382 0 0 0 3.071.069 4.257 4.257 0 0 1-7.174-1.049c-.094-.218-.352-.486-.5-.3a.355.355 0 0 0-.031.29 5.071 5.071 0 0 1-1.023 3.976c.506.04.8-.535 1.17-.882a2.432 2.432 0 0 1 2.05-.445 19.806 19.806 0 0 0 2.133.4c1.758.077 3.291-1.144 4.508-2.414a3.014 3.014 0 0 1-2.322 2.552 28.015 28.015 0 0 1-3.653.508 3.778 3.778 0 0 0-2.982 1.907.644.644 0 0 0-.068.3c.022.259.289.411.5.567.868.651 1.09 2 2.07 2.462a.577.577 0 0 0 .378.066c.2-.049.316-.255.435-.426a3.394 3.394 0 0 1 2.2-1.162 7.448 7.448 0 0 0 2.437-.695 3.841 3.841 0 0 0 1.635-2.536 11.385 11.385 0 0 0 .084-3.093 4.305 4.305 0 0 1-1.553 7.4c.108.3.524.3.84.265a5.166 5.166 0 0 1 3.624 1.063c.021-.513-.557-.8-.9-1.18a2.408 2.408 0 0 1-.432-2c.107-.7.354-1.374.4-2.079a5.819 5.819 0 0 0-2.358-4.481 2.442 2.442 0 0 1 2.4 1.864 19.945 19.945 0 0 1 .431 3.274 7.358 7.358 0 0 0 1.225 3.078c.3.433.823.876 1.294.64a1.74 1.74 0 0 0 .492-.509c.673-.812 1.958-1.041 2.406-2a.594.594 0 0 0 .066-.388c-.068-.22-.287-.338-.467-.464zm-.229-7.61-.181.688-.7-.6zm-9.7-5.742-.563.66-.086-.914zm-5.147 5.291a19.59 19.59 0 0 0-.34-2.017 1.854 1.854 0 0 0-1.367-1.374 1.623 1.623 0 0 1 .812-.773.521.521 0 0 1 .324-.052.6.6 0 0 1 .275.191 6.428 6.428 0 0 1 1.5 2.562 3.522 3.522 0 0 0-1.16-2.918 2.516 2.516 0 0 0 1.033-1.087 6.132 6.132 0 0 1 1.221 2.709c.145.529.26 1.066.364 1.6a6.388 6.388 0 0 0 .251 1.419l-1.092-.476a.843.843 0 0 0 .486-.6 4.709 4.709 0 0 0-2.012 1.114c.277.219.656-.216 1-.154a.528.528 0 0 1 .379.455 3.26 3.26 0 0 1-.01.631 2.006 2.006 0 0 0 1 1.761 3.75 3.75 0 0 1-2.668-2.992zm5.043 3.282a2.524 2.524 0 0 1-2.333-.806 1.744 1.744 0 0 1-.429-1.1c-.021-.282-.023-.565-.035-.889a4.1 4.1 0 0 1 1.4 1.139 3.165 3.165 0 0 0 1.53 1.212c.171.069.341.14.512.211l.006.072a5.69 5.69 0 0 1-.656.161zm-6.521 1.555.23-.655.665.567zm7.806-6.2a3.734 3.734 0 0 1 2.9-2.661c.684-.147 1.4-.14 2.07-.34a1.883 1.883 0 0 0 1.423-1.384c.389.155.958.706.785 1.171a1.284 1.284 0 0 1-.451.528 7.175 7.175 0 0 1-2.319 1.212 3.522 3.522 0 0 0 2.981-1.173 2.651 2.651 0 0 0 1.109 1.079 14.235 14.235 0 0 1-5.756 1.79l.472-1.064a.825.825 0 0 0 .607.459 5.01 5.01 0 0 0-1.121-2.022c-.228.3.248.71.149 1.073a.517.517 0 0 1-.441.332 3.061 3.061 0 0 1-.582-.016 2.048 2.048 0 0 0-1.836 1.031zm-.053 3.06a2.53 2.53 0 0 1-.1-2.042c.412-1.117 1.146-1.5 2.673-1.446a4.414 4.414 0 0 1-1.253 1.477 2.789 2.789 0 0 0-1.071 1.379c-.076.188-.153.377-.253.628zm1.98 8.86.545-.629.086.9zm-3.016-1.609a12.434 12.434 0 0 1-2.6.574 2.562 2.562 0 0 0-2.04 1.519 1.432 1.432 0 0 1-.69-.688.962.962 0 0 1 .263-.919 2.846 2.846 0 0 1 .832-.549l1.629-.817c-1.1.111-2.343.321-2.951 1.244a2.788 2.788 0 0 0-1.139-1.089l-.013-.006a15.763 15.763 0 0 1 5.794-1.807L521 447.4a.809.809 0 0 0-.608-.462 5.158 5.158 0 0 0 1.119 2.017c.238-.273-.221-.667-.16-1.024a.525.525 0 0 1 .452-.378 3.216 3.216 0 0 1 .627.009 2.19 2.19 0 0 0 1.679-.821 3.018 3.018 0 0 1-1.709 2.104zm2.1-4.621a2.553 2.553 0 0 1-.86 2.342 1.583 1.583 0 0 1-.991.375c-.308.018-.616.032-.954.05a3.792 3.792 0 0 1 1.08-1.358 3.3 3.3 0 0 0 1.27-1.579c.066-.164.136-.327.2-.491l.07-.008a4.481 4.481 0 0 1 .184.665zm2.4-.645a3.115 3.115 0 0 0-1.495-1.208l-.54-.22-.012-.091a5.863 5.863 0 0 1 .838-.182 2.5 2.5 0 0 1 2.2.9 1.433 1.433 0 0 1 .3.641c.074.408.084.828.124 1.3a4.208 4.208 0 0 1-1.416-1.145zm4.488 5.775a.53.53 0 0 1-.318.033.611.611 0 0 1-.268-.2 6.83 6.83 0 0 1-1.462-2.56 3.469 3.469 0 0 0 1.17 2.948 2.391 2.391 0 0 0-1.057 1.092c-1.282-1.582-1.322-3.793-1.876-5.753l1.1.476a.865.865 0 0 0-.429.612 5.348 5.348 0 0 0 2.006-1.09c-.274-.294-.768.244-1.138.089-.3-.124-.255-.545-.235-.865a2.172 2.172 0 0 0-.995-1.943 3.663 3.663 0 0 1 2.645 3.107 10.229 10.229 0 0 0 .37 1.968 2.012 2.012 0 0 0 1.367 1.348 1.665 1.665 0 0 1-.878.734z" transform="translate(-506.581 -425.267)" style="fill:#231f20"/>
            <path data-name="Path 84" d="M526.98 458.4a4.445 4.445 0 0 1-2.988 2.2c.333.263.625.5.929.73a2.6 2.6 0 0 0 2.058.439c.279-.045.564-.048.847-.066a1.773 1.773 0 0 1 .26.032 2.892 2.892 0 0 1-1.755.634 2.583 2.583 0 0 1-1.891-.755c-.279-.262-.523-.562-.792-.836a.284.284 0 0 0-.218-.087 9.552 9.552 0 0 0-1.3.385 3.243 3.243 0 0 0-.664.512c-.049.038-.138.1-.155.089-.053-.043-.123-.128-.11-.177a1.872 1.872 0 0 1 .2-.519 2.364 2.364 0 0 1 1.35-.937 10.28 10.28 0 0 1 1.7-.372 4.219 4.219 0 0 0 2.328-1.173l.091-.089a.83.83 0 0 1 .11-.01z" transform="translate(-509.181 -434.733)" style="fill:#231f20"/>
            <path data-name="Path 85" d="M517.041 445.557a2.259 2.259 0 0 1-1.4-1.146 15.238 15.238 0 0 1-.84-1.692c-.287.411-.606.829-.884 1.274a2.283 2.283 0 0 0-.238 1.5c.035.324.065.649.092.974a.432.432 0 0 1-.055.241 2.7 2.7 0 0 1-.6-2.019 2.562 2.562 0 0 1 .691-1.5c.272-.3.588-.55.867-.84a.4.4 0 0 0 .088-.314 6.187 6.187 0 0 0-.321-1.135 4.274 4.274 0 0 0-.538-.739 2.051 2.051 0 0 1-.108-.18c.073-.035.156-.111.216-.1a1.6 1.6 0 0 1 .47.188 2.621 2.621 0 0 1 .945 1.318 7.59 7.59 0 0 1 .4 1.9 3.775 3.775 0 0 0 1.078 2.09c.045.065.09.123.137.18z" transform="translate(-506.175 -427.864)" style="fill:#231f20"/>
            <path data-name="Path 86" d="M542.981 452.435c-.035.162-.177.153-.328.105a1.71 1.71 0 0 1-.946-.793 5.022 5.022 0 0 1-.713-2.258 3.9 3.9 0 0 0-1.116-2.424c-.023-.025-.047-.049-.069-.076l-.091-.118.041-.067a4.211 4.211 0 0 1 .625.384 4.641 4.641 0 0 1 1.451 2.381c.01.04.024.079.037.122.036 0 .073 0 .082-.009.313-.429.65-.844.929-1.295a2.4 2.4 0 0 0 .189-1.607c-.035-.29-.047-.582-.064-.874a.959.959 0 0 1 .035-.2 1.988 1.988 0 0 1 .551 1.1 2.569 2.569 0 0 1-.609 2.424c-.279.319-.62.585-.928.882a.216.216 0 0 0-.065.169 11.187 11.187 0 0 0 .413 1.4 3.713 3.713 0 0 0 .576.754z" transform="translate(-516.056 -430.025)" style="fill:#231f20"/>
            <path data-name="Path 87" d="M528.116 435.661a4.4 4.4 0 0 1 2.965-2.107c-.36-.28-.678-.544-1.012-.785a2.719 2.719 0 0 0-2.1-.379c-.3.046-.606.048-.954.074.2-.379.538-.426.821-.524a2.631 2.631 0 0 1 2.829.637c.267.25.494.544.754.8a.333.333 0 0 0 .269.072 8.542 8.542 0 0 0 1.227-.359 3.373 3.373 0 0 0 .645-.491 1.717 1.717 0 0 1 .221-.122c.025.091.087.19.069.271a1.625 1.625 0 0 1-.82 1.011 4.8 4.8 0 0 1-2.184.689 3.958 3.958 0 0 0-2.546 1.192 1.147 1.147 0 0 1-.121.091z" transform="translate(-511.342 -424.852)" style="fill:#231f20"/>
        </g>
    </g>
</svg>
