<svg xmlns="http://www.w3.org/2000/svg" width="74" height="74" viewBox="0 0 74 74">
    <g data-name="Group 529">
        <g data-name="Ellipse 27" style="fill:#fff;stroke:#d5d5d5">
            <circle cx="37" cy="37" r="37" style="stroke:none"/>
            <circle cx="37" cy="37" r="36.5" style="fill:none"/>
        </g>
        <path data-name="Path 883" d="M32.1 2.456A30.86 30.86 0 0 0 24.28 0a22.942 22.942 0 0 0-1 2.079 28.7 28.7 0 0 0-8.663 0A22.223 22.223 0 0 0 13.6 0a30.757 30.757 0 0 0-7.821 2.463A32.784 32.784 0 0 0 .161 24.415a31.254 31.254 0 0 0 9.587 4.913 23.848 23.848 0 0 0 2.052-3.382 20.184 20.184 0 0 1-3.233-1.574c.271-.2.536-.411.793-.627a22.094 22.094 0 0 0 19.169 0c.259.216.524.426.793.627a20.131 20.131 0 0 1-3.239 1.577 23.73 23.73 0 0 0 2.053 3.382 31.191 31.191 0 0 0 9.593-4.916A32.752 32.752 0 0 0 32.1 2.456zM12.651 20a3.678 3.678 0 0 1-3.406-3.88 3.659 3.659 0 0 1 3.406-3.878 3.635 3.635 0 0 1 3.406 3.878A3.654 3.654 0 0 1 12.651 20zm12.588 0a3.678 3.678 0 0 1-3.406-3.875 3.659 3.659 0 0 1 3.406-3.878 3.635 3.635 0 0 1 3.406 3.878A3.656 3.656 0 0 1 25.239 20z" transform="translate(18.003 22.047)" style="fill:#363637"/>
    </g>
</svg>
