<svg xmlns="http://www.w3.org/2000/svg" width="74" height="74" viewBox="0 0 74 74">
    <g data-name="Group 528">
        <g data-name="Ellipse 26" style="fill:#fff;stroke:#d5d5d5">
            <circle cx="37" cy="37" r="37" style="stroke:none"/>
            <circle cx="37" cy="37" r="36.5" style="fill:none"/>
        </g>
        <path data-name="Icon awesome-instagram" d="M17.7 10.863a9.077 9.077 0 1 0 9.077 9.077 9.063 9.063 0 0 0-9.077-9.077zm0 14.979a5.9 5.9 0 1 1 5.9-5.9 5.912 5.912 0 0 1-5.9 5.899zm11.57-15.351a2.117 2.117 0 1 1-2.117-2.117 2.112 2.112 0 0 1 2.117 2.117zm6.012 2.149c-.134-2.836-.782-5.348-2.86-7.418S27.84 2.5 25 2.362c-2.919-.162-11.68-.162-14.6 0-2.828.134-5.34.782-7.418 2.852S.261 9.8.119 12.632c-.166 2.923-.166 11.684 0 14.607.134 2.836.782 5.348 2.86 7.418s4.582 2.718 7.418 2.86c2.923.166 11.684.166 14.607 0 2.836-.134 5.348-.782 7.418-2.86s2.718-4.582 2.86-7.418c.166-2.923.166-11.676 0-14.6zm-3.776 17.736a5.975 5.975 0 0 1-3.365 3.365c-2.331.924-7.861.711-10.436.711s-8.113.205-10.436-.711A5.975 5.975 0 0 1 3.9 30.376c-.924-2.331-.711-7.861-.711-10.436S2.987 11.826 3.9 9.5a5.975 5.975 0 0 1 3.369-3.362c2.331-.924 7.86-.711 10.431-.711s8.113-.205 10.436.711a5.975 5.975 0 0 1 3.37 3.362c.924 2.331.711 7.861.711 10.436s.213 8.117-.711 10.44z" transform="translate(19.273 17.215)" style="fill:#363637"/>
    </g>
</svg>
