<svg xmlns="http://www.w3.org/2000/svg" width="74" height="74" viewBox="0 0 74 74">
    <g data-name="Group 526">
        <g data-name="Group 530">
            <g data-name="Ellipse 25" style="fill:#fff;stroke:#d5d5d5">
                <circle cx="37" cy="37" r="37" style="stroke:none"/>
                <circle cx="37" cy="37" r="36.5" style="fill:none"/>
            </g>
            <g data-name="Icon ionic-ios-link">
                <path data-name="Path 881" d="m21.7 25.339-.095.008a1.307 1.307 0 0 0-.758.356l-5.1 5.1a5.754 5.754 0 0 1-8.137-8.137l5.419-5.419a5.719 5.719 0 0 1 .9-.735 5.807 5.807 0 0 1 1.169-.593 5.532 5.532 0 0 1 1.185-.292 5.6 5.6 0 0 1 .806-.055c.111 0 .221.008.363.016a5.737 5.737 0 0 1 3.7 1.659 5.665 5.665 0 0 1 1.348 2.159 1.243 1.243 0 0 0 1.525.8c.008 0 .016-.008.024-.008s.016 0 .016-.008a1.234 1.234 0 0 0 .83-1.509 7.159 7.159 0 0 0-1.943-3.239 8.317 8.317 0 0 0-4.55-2.315c-.15-.024-.3-.047-.45-.063a8.152 8.152 0 0 0-.877-.047c-.205 0-.411.008-.608.024a7.968 7.968 0 0 0-1.28.2c-.087.016-.166.039-.253.063a8.217 8.217 0 0 0-1.541.577 8.115 8.115 0 0 0-2.193 1.567l-5.415 5.419a8.333 8.333 0 0 0-2.41 5.886 8.307 8.307 0 0 0 14.173 5.87l5.159-5.159a1.25 1.25 0 0 0-1.007-2.125z" transform="translate(16.958 18.566)" style="fill:#363637"/>
                <path data-name="Path 882" d="M32.567 5.8a8.325 8.325 0 0 0-11.747 0l-5.032 5.032a1.27 1.27 0 0 0 .8 2.165 1.283 1.283 0 0 0 1-.363l5.04-5.024a5.754 5.754 0 0 1 8.137 8.137l-5.419 5.419a5.719 5.719 0 0 1-.9.735 5.807 5.807 0 0 1-1.169.593 5.531 5.531 0 0 1-1.185.292 5.6 5.6 0 0 1-.806.055c-.111 0-.229-.008-.363-.016a5.677 5.677 0 0 1-4.993-3.674 1.262 1.262 0 0 0-1.509-.774A1.276 1.276 0 0 0 13.528 20a7.216 7.216 0 0 0 1.872 2.959l.016.016a8.318 8.318 0 0 0 5 2.378 8.153 8.153 0 0 0 .877.047q.308 0 .616-.024a9.032 9.032 0 0 0 1.525-.253 8.218 8.218 0 0 0 1.541-.577 8.115 8.115 0 0 0 2.188-1.572l5.419-5.419A8.316 8.316 0 0 0 32.567 5.8z" transform="translate(18.205 17.375)" style="fill:#363637"/>
            </g>
        </g>
    </g>
</svg>
