<svg xmlns="http://www.w3.org/2000/svg" width="74" height="74" viewBox="0 0 74 74">
    <g data-name="Group 527">
        <g data-name="Ellipse 24" style="fill:#fff;stroke:#d5d5d5">
            <circle cx="37" cy="37" r="37" style="stroke:none"/>
            <circle cx="37" cy="37" r="36.5" style="fill:none"/>
        </g>
        <path data-name="Icon awesome-twitter" d="M31.828 10.561c.023.315.023.63.023.945 0 9.611-7.315 20.686-20.686 20.686A20.546 20.546 0 0 1 0 28.929a15.04 15.04 0 0 0 1.756.09 14.561 14.561 0 0 0 9.026-3.106 7.283 7.283 0 0 1-6.8-5.042 9.168 9.168 0 0 0 1.373.113 7.689 7.689 0 0 0 1.913-.248A7.271 7.271 0 0 1 1.441 13.6v-.09a7.322 7.322 0 0 0 3.286.923 7.281 7.281 0 0 1-2.251-9.724 20.666 20.666 0 0 0 14.991 7.608 8.207 8.207 0 0 1-.18-1.666A7.277 7.277 0 0 1 29.87 5.677a14.314 14.314 0 0 0 4.614-1.756 7.251 7.251 0 0 1-3.2 4.007 14.575 14.575 0 0 0 4.19-1.128 15.629 15.629 0 0 1-3.646 3.759z" transform="translate(19.532 18.666)" style="fill:#363637"/>
    </g>
</svg>
