<svg xmlns="http://www.w3.org/2000/svg" width="148" height="215.425" viewBox="0 0 148 215.425">
    <g data-name="Group 506">
        <path data-name="Path 864" d="m172.788 397.368 122.887-104.321a11.551 11.551 0 0 0 4.076-8.809v-66.56a11.558 11.558 0 0 0-19.036-8.811l-122.886 104.32a11.561 11.561 0 0 0-4.078 8.813v66.558a11.558 11.558 0 0 0 19.037 8.812" transform="translate(-152.751 -185.855)" style="fill:#fff;stroke:#8ae8d9;stroke-width:2px"/>
        <path data-name="Path 865" d="M280.714 397.369 157.827 293.047a11.55 11.55 0 0 1-4.076-8.809v-66.56a11.558 11.558 0 0 1 19.037-8.811l122.885 104.321a11.56 11.56 0 0 1 4.078 8.812v66.558a11.558 11.558 0 0 1-19.037 8.811" transform="translate(-152.751 -204.956)" style="fill:#fff;stroke:#8ae8d9;stroke-width:2px"/>
    </g>
</svg>
