<svg xmlns="http://www.w3.org/2000/svg" width="14.45" height="18" viewBox="0 0 14.45 18">
    <g data-name="Group 791">
        <path data-name="Path 961" d="M474.924 233.815c-1.037 0-2.074-.014-3.111 0a3.674 3.674 0 0 1-2.521-.957 4.45 4.45 0 0 1-1.546-2.954 8.055 8.055 0 0 1 .354-3.268 14.72 14.72 0 0 1 1.637-3.534 23.536 23.536 0 0 1 1.547-2.187.558.558 0 0 1 .5-.236q3.183.013 6.366 0a.414.414 0 0 1 .363.17 18.41 18.41 0 0 1 3.032 5.163 9.942 9.942 0 0 1 .541 2.177 5.563 5.563 0 0 1-.363 3.106 4.191 4.191 0 0 1-2.873 2.44 2.738 2.738 0 0 1-.647.071c-1.095.013-2.187.009-3.279.009zm-.655-3.938c0 .073.01.14.011.207 0 .15-.006.3 0 .45a.639.639 0 0 0 .53.617.6.6 0 0 0 .655-.309 1.085 1.085 0 0 0 .094-.391c.015-.188 0-.378 0-.577.109-.018.2-.036.283-.046a1.933 1.933 0 0 0 1.6-1.374 1.958 1.958 0 0 0-.646-2.062 2.028 2.028 0 0 0-1.291-.438h-1.208a.81.81 0 0 1-.222-.024.672.672 0 0 1-.475-.743.66.66 0 0 1 .652-.565c.4 0 .806.01 1.208 0a.76.76 0 0 1 .744.4.618.618 0 0 0 .839.226.628.628 0 0 0 .263-.847 1.91 1.91 0 0 0-1.44-1.032c-.093-.015-.186-.032-.3-.052v-.513a1.316 1.316 0 0 0-.04-.323.63.63 0 0 0-1.118-.182.72.72 0 0 0-.127.444v.578c-.109.018-.195.036-.282.046a1.934 1.934 0 0 0-1.6 1.373 1.956 1.956 0 0 0 .646 2.062 2.037 2.037 0 0 0 1.291.439c.416.005.832 0 1.249 0a.666.666 0 0 1 0 1.331c-.443.005-.887 0-1.33 0a.644.644 0 0 1-.528-.266c-.038-.048-.067-.1-.1-.153a.634.634 0 0 0-1.082.657 1.912 1.912 0 0 0 1.455 1.018c.085.013.171.031.27.049z" transform="translate(-467.7 -215.82)" style="fill:#005e4d"/>
        <path data-name="Path 962" d="M520.357 135.6h-2.846a.256.256 0 0 1-.272-.157c-.45-.918-.907-1.833-1.364-2.749a.812.812 0 0 1-.11-.409.67.67 0 0 1 1.012-.553.972.972 0 0 1 .1.073 2.545 2.545 0 0 0 2.54.3 2.106 2.106 0 0 0 .475-.277.686.686 0 0 1 .95 0 2.461 2.461 0 0 0 1.817.457 2.37 2.37 0 0 0 1.215-.493.669.669 0 0 1 1.007.841c-.239.491-.486.977-.729 1.465-.221.446-.446.89-.66 1.34a.254.254 0 0 1-.269.164c-.955-.007-1.911-.002-2.866-.002z" transform="translate(-513.14 -131.634)" style="fill:#005e4d"/>
    </g>
</svg>
