<svg xmlns="http://www.w3.org/2000/svg" width="14.199" height="16.812" viewBox="0 0 14.199 16.812">
    <g data-name="Group 799">
        <path data-name="Path 966" d="M529.969 164.6a3.644 3.644 0 0 1 .522.228 1.481 1.481 0 0 1 .732 1.314q.005 5.806 0 11.612a1.5 1.5 0 0 1-.919 1.416 2.1 2.1 0 0 1-.223.078c-.006-.1-.015-.179-.015-.258v-10.661a2.483 2.483 0 0 0-.289-1.246 2.412 2.412 0 0 0-2.15-1.329c-.809-.02-1.618-.005-2.428-.005h-5.758c-.074 0-.148-.009-.242-.014a1.5 1.5 0 0 1 .5-.789 1.777 1.777 0 0 1 .717-.344z" transform="translate(-517.028 -164.596)" style="fill:#005e4d"/>
        <path data-name="Path 967" d="M469.661 219.67c0-1.935-.006-3.871 0-5.806a1.5 1.5 0 0 1 .929-1.426 1.6 1.6 0 0 1 .7-.136h8.858a1.564 1.564 0 0 1 1.6 1.6v11.531a1.561 1.561 0 0 1-1.311 1.572 1.277 1.277 0 0 1-.228.016h-9.023a1.54 1.54 0 0 1-1.527-1.528c-.001-1.941.002-3.882.002-5.823zm2.146-1.06v1.936a.517.517 0 0 0 .291.49q1.65.947 3.3 1.9a.563.563 0 0 0 .617.006c1.088-.631 2.176-1.262 3.268-1.885a.6.6 0 0 0 .333-.585q-.012-1.87 0-3.741a.591.591 0 0 0-.331-.57q-1.638-.935-3.268-1.885a.563.563 0 0 0-.617 0q-1.637.954-3.282 1.894a.548.548 0 0 0-.308.53c.002.641-.003 1.276-.003 1.91zm3.886 6.268h3.445a.456.456 0 0 0 .467-.451.469.469 0 0 0-.452-.488H472.262a.458.458 0 0 0-.453.481.448.448 0 0 0 .455.459h.18z" transform="translate(-469.659 -210.211)" style="fill:#005e4d"/>
        <path data-name="Path 968" d="M546.019 282.68v1.526a.258.258 0 0 1-.15.259q-1.332.76-2.656 1.533a.261.261 0 0 1-.3.005q-1.332-.777-2.67-1.542a.247.247 0 0 1-.143-.246q.006-1.542 0-3.084a.235.235 0 0 1 .135-.234q1.345-.77 2.684-1.55a.25.25 0 0 1 .286 0q1.339.78 2.685 1.549a.224.224 0 0 1 .129.222c-.002.523 0 1.043 0 1.562zm-4.682 0a1.487 1.487 0 0 0 .11.281l1.2 1.8a.488.488 0 0 0 .833 0q.589-.888 1.182-1.773a.5.5 0 0 0 0-.611c-.395-.59-.791-1.18-1.181-1.773a.491.491 0 0 0-.843 0c-.388.6-.794 1.191-1.187 1.79a1.52 1.52 0 0 0-.115.283z" transform="translate(-537.014 -274.276)" style="fill:#005e4d"/>
        <path data-name="Path 969" d="M593.62 335.76c-.162-.243-.316-.467-.463-.7-.217-.337-.217-.2 0-.543.118-.184.241-.364.363-.545.03-.044.063-.086.12-.164.029.049.047.082.068.113.169.255.338.509.509.763a.152.152 0 0 1 .015.194c-.185.271-.365.544-.548.816a.573.573 0 0 1-.064.066z" transform="translate(-587.589 -326.394)" style="fill:#005e4d"/>
    </g>
</svg>
