<svg xmlns="http://www.w3.org/2000/svg" width="19" height="19" viewBox="0 0 19 19">
    <path d="M5.937 10.292A3.562 3.562 0 1 1 9.5 6.729a3.562 3.562 0 0 1-3.562 3.562zm5.937 5.542a3.963 3.963 0 0 0-3.958-3.958H3.958A3.963 3.963 0 0 0 0 15.833V19h11.875zm1.979-8.708a3.562 3.562 0 1 1 3.562-3.562 3.562 3.562 0 0 1-3.562 3.562zm1.188 1.583h-3.958a3.8 3.8 0 0 0-.415.042A5.157 5.157 0 0 1 9.421 10.5a5.548 5.548 0 0 1 4.037 5.329H19v-3.162a3.963 3.963 0 0 0-3.958-3.959z" style="fill:#005e4d"/>
</svg>
