<svg xmlns="http://www.w3.org/2000/svg" width="17" height="17" viewBox="0 0 17 17">
    <defs>
        <radialGradient id="j5pfz6yvna" cx=".5" cy=".5" r=".5" gradientUnits="objectBoundingBox">
            <stop offset="0" stop-color="#e2836f"/>
            <stop offset="1" stop-color="#dc5950"/>
        </radialGradient>
        <radialGradient id="7giwgpw8bb" cx=".265" cy="-.014" r="1.048" gradientUnits="objectBoundingBox">
            <stop offset="0" stop-color="#dc5950"/>
            <stop offset="1" stop-color="#e2836f"/>
        </radialGradient>
    </defs>
    <g data-name="Group 789" transform="translate(10607.318 -4608.682)">
        <circle data-name="Ellipse 9" cx="8.5" cy="8.5" r="8.5" transform="translate(-10607.318 4608.682)" style="fill:url(#j5pfz6yvna)"/>
        <g data-name="Group 543" transform="translate(-10605.31 4610.691)">
            <circle data-name="Ellipse 10" cx="6.518" cy="6.518" style="fill:url(#7giwgpw8bb)" r="6.518"/>
            <g data-name="Group 37">
                <path data-name="Path 83" d="M522.849 440.122a1.587 1.587 0 0 1-.547-1.038 3.607 3.607 0 0 0-.318-1.154 1.833 1.833 0 0 0-1.22-.8 5.441 5.441 0 0 0-1.5-.04 2.053 2.053 0 0 1 3.463.522c.035.083.108.186.188.146.061-.031.057-.118.047-.186a2.492 2.492 0 0 1 .483-1.88c-.234-.021-.366.25-.533.415a1.079 1.079 0 0 1-.9.23c-.317-.04-.624-.15-.942-.184a2.647 2.647 0 0 0-2.289 1.125 1.076 1.076 0 0 1 .731-1.1 5.369 5.369 0 0 1 1.4-.235 5.028 5.028 0 0 0 1.5-.432 1.242 1.242 0 0 0 .57-.464c.173-.309.018-.371-.194-.559-.38-.338-.483-.944-.968-1.174a.274.274 0 0 0-.218-.025.374.374 0 0 0-.143.142 1.467 1.467 0 0 1-.574.464c-.494.223-1.085.159-1.569.4a1.826 1.826 0 0 0-.879 1.232 5.4 5.4 0 0 0-.065 1.555 2.094 2.094 0 0 1 .745-3.571c-.107-.146-.324-.128-.5-.116a2.364 2.364 0 0 1-1.62-.514c-.04.234.239.375.408.542a1.081 1.081 0 0 1 .232.916c-.043.324-.157.635-.189.961a2.694 2.694 0 0 0 1.133 2.259 1.044 1.044 0 0 1-1.017-.566 3 3 0 0 1-.3-1.192 6.386 6.386 0 0 0-.317-1.634 1.713 1.713 0 0 0-.583-.813.355.355 0 0 0-.361-.065.519.519 0 0 0-.148.17c-.3.427-.923.541-1.206.98a.32.32 0 0 0-.061.257c.03.1.129.154.211.215a1.683 1.683 0 0 1 .547 1.063 3.482 3.482 0 0 0 .341 1.168 1.842 1.842 0 0 0 1.215.771 5.464 5.464 0 0 0 1.474.033 2.043 2.043 0 0 1-3.442-.5c-.045-.1-.169-.233-.242-.146a.17.17 0 0 0-.015.139 2.433 2.433 0 0 1-.491 1.908c.243.019.384-.256.561-.423a1.167 1.167 0 0 1 .984-.213 9.465 9.465 0 0 0 1.023.191 3.027 3.027 0 0 0 2.163-1.158 1.446 1.446 0 0 1-1.114 1.225 13.456 13.456 0 0 1-1.753.244 1.812 1.812 0 0 0-1.431.915.309.309 0 0 0-.033.146c.01.124.139.2.238.272.417.313.523.958.994 1.181a.276.276 0 0 0 .181.032c.1-.023.151-.122.208-.2a1.63 1.63 0 0 1 1.054-.558 3.576 3.576 0 0 0 1.169-.334 1.843 1.843 0 0 0 .785-1.217 5.466 5.466 0 0 0 .04-1.484 2.066 2.066 0 0 1-.745 3.551c.052.143.251.142.4.127a2.479 2.479 0 0 1 1.739.51c.01-.246-.267-.385-.434-.566a1.156 1.156 0 0 1-.207-.961c.051-.335.17-.659.191-1a2.793 2.793 0 0 0-1.131-2.15 1.172 1.172 0 0 1 1.153.894 9.565 9.565 0 0 1 .207 1.571 3.529 3.529 0 0 0 .588 1.477c.144.208.395.42.621.307a.836.836 0 0 0 .236-.244c.323-.39.939-.5 1.155-.958a.285.285 0 0 0 .032-.186c-.019-.1-.125-.156-.211-.216zm-.11-3.652-.087.33-.335-.29zm-4.656-2.755-.27.317-.041-.439zm-2.47 2.539a9.459 9.459 0 0 0-.163-.968.89.89 0 0 0-.656-.659.779.779 0 0 1 .39-.371.25.25 0 0 1 .156-.025.288.288 0 0 1 .132.092 3.083 3.083 0 0 1 .72 1.229 1.69 1.69 0 0 0-.556-1.4 1.207 1.207 0 0 0 .5-.521 2.943 2.943 0 0 1 .586 1.3c.069.254.125.512.175.77a3.068 3.068 0 0 0 .12.681l-.524-.229a.4.4 0 0 0 .233-.289 2.257 2.257 0 0 0-.966.535c.133.105.315-.1.482-.074a.254.254 0 0 1 .182.218 1.57 1.57 0 0 1 0 .3.963.963 0 0 0 .479.845 1.8 1.8 0 0 1-1.29-1.435zm2.42 1.575a1.211 1.211 0 0 1-1.119-.387.837.837 0 0 1-.206-.53c-.01-.135-.011-.271-.017-.426a1.965 1.965 0 0 1 .671.547 1.519 1.519 0 0 0 .734.582l.245.1v.034a2.731 2.731 0 0 1-.308.079zm-3.129.746.11-.314.319.272zm3.746-2.977a1.792 1.792 0 0 1 1.394-1.277c.328-.071.671-.067.993-.163a.9.9 0 0 0 .683-.664c.187.074.46.339.377.562a.615.615 0 0 1-.216.254 3.443 3.443 0 0 1-1.113.582 1.69 1.69 0 0 0 1.43-.563 1.272 1.272 0 0 0 .532.518 6.831 6.831 0 0 1-2.762.859l.227-.511a.4.4 0 0 0 .292.22 2.406 2.406 0 0 0-.538-.97c-.11.144.119.341.072.515a.248.248 0 0 1-.212.159 1.482 1.482 0 0 1-.279-.007.983.983 0 0 0-.881.495zm-.026 1.468a1.214 1.214 0 0 1-.047-.98c.2-.536.55-.72 1.283-.694a2.117 2.117 0 0 1-.6.709 1.339 1.339 0 0 0-.514.662l-.122.303zm.95 4.252.262-.3.041.43zm-1.447-.772a5.95 5.95 0 0 1-1.248.275 1.229 1.229 0 0 0-.979.729.686.686 0 0 1-.331-.33.462.462 0 0 1 .126-.441 1.365 1.365 0 0 1 .4-.263l.782-.392a1.829 1.829 0 0 0-1.416.6 1.338 1.338 0 0 0-.547-.522h-.006a7.565 7.565 0 0 1 2.78-.867l-.232.526a.388.388 0 0 0-.292-.221 2.477 2.477 0 0 0 .537.968c.114-.131-.106-.32-.077-.491a.252.252 0 0 1 .217-.181 1.539 1.539 0 0 1 .3 0 1.051 1.051 0 0 0 .806-.394 1.448 1.448 0 0 1-.82 1.003zm1.009-2.217a1.224 1.224 0 0 1-.412 1.124.76.76 0 0 1-.476.18c-.148.009-.3.015-.458.024a1.82 1.82 0 0 1 .518-.651 1.585 1.585 0 0 0 .609-.758c.032-.079.066-.157.1-.236h.034a2.153 2.153 0 0 1 .085.315zm1.154-.31a1.5 1.5 0 0 0-.717-.58l-.259-.106-.006-.043a2.813 2.813 0 0 1 .4-.087 1.2 1.2 0 0 1 1.054.432.686.686 0 0 1 .144.308c.036.2.04.4.06.622a2.02 2.02 0 0 1-.677-.547zm2.153 2.771a.254.254 0 0 1-.153.016.293.293 0 0 1-.129-.1 3.278 3.278 0 0 1-.7-1.228 1.664 1.664 0 0 0 .562 1.414 1.148 1.148 0 0 0-.507.524 7.307 7.307 0 0 1-.9-2.76l.529.228a.414.414 0 0 0-.206.294 2.564 2.564 0 0 0 .963-.523c-.132-.141-.368.117-.546.043-.142-.06-.122-.261-.112-.415a1.042 1.042 0 0 0-.477-.933 1.758 1.758 0 0 1 1.269 1.491 4.9 4.9 0 0 0 .177.945.965.965 0 0 0 .656.647.8.8 0 0 1-.426.356z" transform="translate(-512.234 -430.928)" style="fill:#231f20"/>
                <path data-name="Path 84" d="M523.971 458.4a2.133 2.133 0 0 1-1.434 1.054c.16.126.3.242.446.35a1.248 1.248 0 0 0 .988.211c.134-.021.271-.023.406-.032a.838.838 0 0 1 .125.015 1.388 1.388 0 0 1-.842.3 1.24 1.24 0 0 1-.907-.362c-.134-.126-.251-.27-.38-.4a.135.135 0 0 0-.1-.042 4.6 4.6 0 0 0-.626.185 1.561 1.561 0 0 0-.319.246c-.024.018-.066.05-.074.043-.025-.021-.059-.062-.053-.085a.9.9 0 0 1 .1-.249 1.135 1.135 0 0 1 .648-.45 4.936 4.936 0 0 1 .815-.178 2.024 2.024 0 0 0 1.117-.563l.044-.043a.4.4 0 0 1 .046 0z" transform="translate(-517.127 -448.737)" style="fill:#231f20"/>
                <path data-name="Path 85" d="M514.987 442.608a1.084 1.084 0 0 1-.674-.55 7.285 7.285 0 0 1-.4-.812c-.138.2-.291.4-.424.611a1.1 1.1 0 0 0-.114.721c.016.155.031.311.044.467a.209.209 0 0 1-.026.116 1.3 1.3 0 0 1-.289-.969 1.228 1.228 0 0 1 .331-.719c.13-.142.282-.264.416-.4a.193.193 0 0 0 .042-.151 2.991 2.991 0 0 0-.154-.545 2.046 2.046 0 0 0-.258-.354 1 1 0 0 1-.052-.086c.035-.017.075-.053.1-.046a.768.768 0 0 1 .225.09 1.257 1.257 0 0 1 .454.632 3.638 3.638 0 0 1 .194.913 1.811 1.811 0 0 0 .517 1c.024.027.046.055.068.082z" transform="translate(-511.47 -435.814)" style="fill:#231f20"/>
                <path data-name="Path 86" d="M541.284 448.936c-.016.078-.085.073-.157.05a.821.821 0 0 1-.454-.381 2.406 2.406 0 0 1-.342-1.084 1.872 1.872 0 0 0-.536-1.163c-.011-.012-.023-.023-.033-.036l-.044-.057.02-.032a2.031 2.031 0 0 1 .3.184 2.227 2.227 0 0 1 .7 1.143c0 .019.011.038.018.059h.039c.15-.206.312-.4.446-.621a1.15 1.15 0 0 0 .091-.771c-.016-.139-.022-.279-.03-.419a.446.446 0 0 1 .017-.094.953.953 0 0 1 .264.53 1.232 1.232 0 0 1-.292 1.163c-.134.153-.3.281-.445.423a.1.1 0 0 0-.031.081 5.373 5.373 0 0 0 .2.671 1.776 1.776 0 0 0 .269.354z" transform="translate(-530.06 -439.88)" style="fill:#231f20"/>
                <path data-name="Path 87" d="M527.544 433.637a2.11 2.11 0 0 1 1.423-1.011c-.173-.134-.325-.261-.486-.377a1.3 1.3 0 0 0-1.007-.182c-.144.022-.291.023-.458.036.095-.182.258-.2.394-.251a1.262 1.262 0 0 1 1.358.306c.128.12.237.261.362.385a.16.16 0 0 0 .129.035 4.1 4.1 0 0 0 .589-.172 1.611 1.611 0 0 0 .309-.235.83.83 0 0 1 .106-.059c.012.043.042.091.033.13a.78.78 0 0 1-.393.485 2.3 2.3 0 0 1-1.048.33 1.9 1.9 0 0 0-1.222.572.54.54 0 0 1-.058.044z" transform="translate(-521.191 -430.147)" style="fill:#231f20"/>
            </g>
        </g>
    </g>
</svg>
