<svg xmlns="http://www.w3.org/2000/svg" width="13.882" height="16.884" viewBox="0 0 13.882 16.884">
    <g data-name="Group 797">
        <path data-name="Path 965" d="M536.865 175.2h.265c.726 0 1.453-.009 2.179.011a1.815 1.815 0 0 1 1.354.668 2.04 2.04 0 0 1 .487 1.4v12.878a1.941 1.941 0 0 1-.748 1.509 1.964 1.964 0 0 1-1.255.41h-10.065a1.91 1.91 0 0 1-1.35-.681 2.036 2.036 0 0 1-.463-1.383v-12.878a1.985 1.985 0 0 1 .4-1.157 1.907 1.907 0 0 1 1.581-.766h2.034c.081 0 .162-.008.232-.012m2.678 11.5h3.548a1.242 1.242 0 0 0 .207-.009.173.173 0 0 0 .167-.179 7.048 7.048 0 0 0-.029-.972 1.6 1.6 0 0 0-.924-1.2c-.461-.236-.925-.467-1.385-.706-.076-.04-.175-.1-.2-.169a.848.848 0 0 1 .026-.679c.142-.261.274-.526.418-.786a.9.9 0 0 1 .173-.225.82.82 0 0 0 .295-.594q.007-.269.006-.539a1.093 1.093 0 0 0-.121-.621.332.332 0 0 1-.024-.161v-.373a1.6 1.6 0 0 0-1.14-1.6 3.144 3.144 0 0 0-2.016 0 1.519 1.519 0 0 0-1.027.976 2.251 2.251 0 0 0-.1.565 1.752 1.752 0 0 1-.124.828.475.475 0 0 0-.04.222 5.922 5.922 0 0 0 0 .663.927.927 0 0 0 .124.429 2.778 2.778 0 0 1 .259.536 3.049 3.049 0 0 0 .279.554.9.9 0 0 1 .152.544.462.462 0 0 1-.278.46c-.461.236-.917.484-1.367.74a1.487 1.487 0 0 0-.771 1.077 7.169 7.169 0 0 0-.035 1.013.194.194 0 0 0 .193.2 1.551 1.551 0 0 0 .207.007zm3.821 1.531h-7.64v1.041c.2.061 7.482.055 7.64-.006z" style="fill:#005e4d" transform="translate(-527.268 -175.189)"/>
    </g>
</svg>
