<svg xmlns="http://www.w3.org/2000/svg" width="26.943" height="22.33" viewBox="0 0 26.943 22.33">
    <g data-name="Icon feather-users">
        <path data-name="Path 874" d="M20 29.439v-2.313a4.626 4.626 0 0 0-4.622-4.626H6.126A4.626 4.626 0 0 0 1.5 27.126v2.313" transform="translate(-.75 -7.86)" style="stroke:#ff4744;fill:none;stroke-linecap:round;stroke-linejoin:round;stroke-width:1.5px"/>
        <path data-name="Path 875" d="M16.752 9.126A4.626 4.626 0 1 1 12.126 4.5a4.626 4.626 0 0 1 4.626 4.626z" transform="translate(-2.124 -3.738)" style="stroke:#ff4744;fill:none;stroke-linecap:round;stroke-linejoin:round;stroke-width:1.5px"/>
        <path data-name="Path 876" d="M33.47 29.484v-2.313A4.626 4.626 0 0 0 30 22.7" transform="translate(-7.276 -7.904)" style="stroke:#005e4d;fill:none;stroke-linecap:round;stroke-linejoin:round;stroke-width:1.5px"/>
        <path data-name="Path 877" d="M24 4.7a4.626 4.626 0 0 1 0 8.963" transform="translate(-5.902 -3.783)" style="stroke:#005e4d;fill:none;stroke-linecap:round;stroke-linejoin:round;stroke-width:1.5px"/>
    </g>
</svg>
