<svg xmlns="http://www.w3.org/2000/svg" width="16.5" height="16.5" viewBox="0 0 16.5 16.5">
    <path d="M9.687 11h.626C14.88 11 16.5 8.594 16.5 6.531a2.406 2.406 0 0 0-1.952-2.36 5.2 5.2 0 0 0 .281-.687 2.672 2.672 0 0 0-.43-2.377A2.736 2.736 0 0 0 12.189 0H4.311A2.736 2.736 0 0 0 2.1 1.108a2.672 2.672 0 0 0-.43 2.377 5.2 5.2 0 0 0 .281.687A2.406 2.406 0 0 0 0 6.531C0 8.594 1.62 11 6.188 11h.626a3.456 3.456 0 0 1 .062.633v2.117A1.295 1.295 0 0 1 5.5 15.125H4.125a.688.688 0 0 0 0 1.375h8.25a.688.688 0 0 0 0-1.375H11a1.3 1.3 0 0 1-1.375-1.375v-2.118A3.455 3.455 0 0 1 9.687 11zm1.125-1.96a16.147 16.147 0 0 0 3.025-3.592.687.687 0 0 0 .257.052 1.031 1.031 0 0 1 1.031 1.031c0 1.5-1.264 3.094-4.812 3.094h-.038a3.3 3.3 0 0 1 .537-.585zm-4.624.585c-3.548 0-4.813-1.6-4.813-3.094A1.031 1.031 0 0 1 2.406 5.5a.688.688 0 0 0 .258-.052A16.147 16.147 0 0 0 5.689 9.04a3.3 3.3 0 0 1 .537.585z" style="fill:#005e4d"/>
</svg>
