<svg xmlns="http://www.w3.org/2000/svg" width="18.995" height="19" viewBox="0 0 18.995 19">
    <g data-name="Group 794">
        <path data-name="Path 963" d="M204.033 163.318h-2.151a.8.8 0 0 1-.519-.685c-.072-.469-.16-.936-.232-1.406a.277.277 0 0 0-.229-.267 6.353 6.353 0 0 1-1.54-.625.251.251 0 0 0-.315.022q-.634.466-1.282.915a.674.674 0 0 1-.913-.055q-.638-.62-1.256-1.26a.8.8 0 0 1-.172-.321.672.672 0 0 1 .139-.608c.3-.409.592-.822.9-1.227a.246.246 0 0 0 .019-.314 6.286 6.286 0 0 1-.635-1.5.3.3 0 0 0-.3-.262h-.037c-.5-.086-1-.167-1.495-.259a.675.675 0 0 1-.59-.663q-.019-.908 0-1.816a.679.679 0 0 1 .552-.658c.06-.014.121-.025.182-.036.462-.078.924-.159 1.387-.232a.26.26 0 0 0 .248-.221 5.992 5.992 0 0 1 .649-1.589.246.246 0 0 0-.015-.314c-.3-.413-.593-.837-.9-1.25a.738.738 0 0 1 .08-.99c.386-.373.757-.764 1.136-1.145a.708.708 0 0 1 1.028-.09c.394.277.786.558 1.179.837l.2.138c.064-.033.125-.063.184-.1a6.573 6.573 0 0 1 1.5-.616.273.273 0 0 0 .24-.274.484.484 0 0 1 .006-.055c.083-.493.158-.987.252-1.477a.692.692 0 0 1 .732-.6h1.668a.7.7 0 0 1 .74.631c.086.5.178 1.008.253 1.515a.249.249 0 0 0 .208.238 6.639 6.639 0 0 1 1.553.643.249.249 0 0 0 .315-.018c.413-.3.832-.6 1.253-.893a.693.693 0 0 1 .972.071q.6.59 1.191 1.194a.87.87 0 0 1 .18.276.684.684 0 0 1-.112.681c-.293.413-.583.829-.883 1.237a.273.273 0 0 0-.026.346 6.126 6.126 0 0 1 .629 1.518.28.28 0 0 0 .261.235c.475.072.949.154 1.424.23a.783.783 0 0 1 .537.259 2.331 2.331 0 0 1 .172.3v2.077a.782.782 0 0 1-.693.558c-.171.022-.341.054-.512.082-.316.052-.632.108-.949.156a.237.237 0 0 0-.232.216.451.451 0 0 1-.019.072 7.384 7.384 0 0 1-.789 1.752c-.034.055-.075.106-.118.166-.045-.037-.075-.058-.1-.084-.691-.69-1.383-1.379-2.07-2.072a1.788 1.788 0 0 1-.538-1.054c-.033-.274-.016-.554-.027-.831a6.465 6.465 0 0 0-.043-.737 3.3 3.3 0 0 0-1.368-2.229 3.443 3.443 0 0 0-3.011-.541c-.192.049-.214.124-.077.263.282.286.568.568.852.853.188.188.381.371.562.565a1.083 1.083 0 0 1 .03 1.525 8.286 8.286 0 0 1-.764.755 1.036 1.036 0 0 1-1.094.183 1.3 1.3 0 0 1-.466-.328q-.609-.61-1.22-1.219c-.055-.055-.118-.1-.195-.167a.567.567 0 0 0-.084.135 2.805 2.805 0 0 0-.075.4 3.533 3.533 0 0 0 .367 2.011 3.45 3.45 0 0 0 2.02 1.715 3.918 3.918 0 0 0 1.371.162 2.038 2.038 0 0 1 1.555.616q1.053 1.058 2.11 2.112c.041.041.075.089.125.149-.124.078-.226.146-.333.207a7.021 7.021 0 0 1-1.615.687.223.223 0 0 0-.189.21c-.074.488-.173.972-.244 1.46a.806.806 0 0 1-.534.715z" transform="translate(-193.418 -144.318)" style="fill:#005e4d"/>
        <path data-name="Path 964" d="m438.2 388.668-.639.633a1.128 1.128 0 0 1-.1-.084l-3.944-3.945a.535.535 0 0 1-.189-.35.435.435 0 0 1 .212-.423.415.415 0 0 1 .472 0 1.191 1.191 0 0 1 .2.164q1.939 1.94 3.876 3.882c.035.041.074.087.112.123z" transform="translate(-421.686 -372.78)" style="fill:#005e4d"/>
    </g>
</svg>
