<svg xmlns="http://www.w3.org/2000/svg" width="370.5" height="539.977" viewBox="0 0 370.5 539.977">
    <g data-name="Group 510">
        <path data-name="Path 864" d="m201.8 688.858 310.164-263.3a29.153 29.153 0 0 0 10.288-22.234v-168c0-24.855-29.1-38.32-48.048-22.24l-310.159 263.3a29.18 29.18 0 0 0-10.294 22.24v167.994c0 24.855 29.1 38.328 48.048 22.24" transform="translate(-152.751 -156.879)" style="fill:#fff;stroke:#8ae8d9;stroke-width:2px"/>
        <path data-name="Path 865" d="m474.2 688.858-310.164-263.3a29.153 29.153 0 0 1-10.288-22.234v-168c0-24.855 29.1-38.32 48.048-22.24l310.159 263.3a29.178 29.178 0 0 1 10.294 22.24v167.994c0 24.855-29.1 38.328-48.048 22.24" transform="translate(-152.751 -205.089)" style="fill:#fff;stroke:#8ae8d9;stroke-width:2px"/>
    </g>
</svg>
