<svg xmlns="http://www.w3.org/2000/svg" width="67" height="67" viewBox="0 0 67 67">
    <g data-name="Group 517" transform="translate(-1622 -10279)">
        <rect data-name="Rectangle 29" width="67" height="67" rx="14" transform="translate(1622 10279)" style="fill:#24342f"/>
        <path data-name="Path 40" d="M485.267 658.917a3.183 3.183 0 0 1-1.693 1.57 2.721 2.721 0 0 1-2.439-.187 3.428 3.428 0 0 1-1.6-2.105 3.943 3.943 0 0 1 .176-2.739 3.255 3.255 0 0 1 1.618-1.72 2.744 2.744 0 0 1 2.228-.087 3.174 3.174 0 0 1 1.657 1.461 3.773 3.773 0 0 1 .489 1.965 3.826 3.826 0 0 1-.44 1.843m-11.257-1.964a4.009 4.009 0 0 1-.65 2.317 3.063 3.063 0 0 1-1.57 1.249 2.777 2.777 0 0 1-2.811-.54 3.563 3.563 0 0 1-1.224-2.119 3.95 3.95 0 0 1 .322-2.548 3.161 3.161 0 0 1 1.66-1.625 2.791 2.791 0 0 1 2.9.406 3.492 3.492 0 0 1 1.278 2.083 3.431 3.431 0 0 1 .089.777m20.273 3.564q-.051-1.409-.228-2.806a28.924 28.924 0 0 0-.588-3.186 29.585 29.585 0 0 0-1.186-3.777 32.4 32.4 0 0 0-1.737-3.735q-.726-1.322-1.558-2.581a.338.338 0 0 0-.141-.135q-1.059-.493-2.155-.9a28.313 28.313 0 0 0-4.047-1.166c-.288-.061-.575-.114-.863-.169-.126-.024-.13-.02-.187.087s-.113.213-.165.32q-.355.688-.66 1.4c-.044.106-.046.108-.164.09a32.71 32.71 0 0 0-1.3-.159q-1.268-.125-2.545-.13c-.672 0-1.343.022-2.013.072-.489.036-.975.085-1.461.15-.179.024-.36.048-.54.075a.081.081 0 0 1-.1-.056c-.014-.037-.031-.073-.048-.109-.237-.554-.5-1.091-.787-1.619-.087-.16-.039-.148-.234-.114-.9.159-1.795.365-2.676.612a29.01 29.01 0 0 0-4.35 1.609.338.338 0 0 0-.147.13 37.31 37.31 0 0 0-1.58 2.646 32.825 32.825 0 0 0-1.5 3.169 29.923 29.923 0 0 0-1.454 4.543q-.281 1.209-.462 2.438c-.072.488-.13.978-.176 1.469-.058.593-.1 1.188-.118 1.785-.024.92-.029 1.843.017 2.763q.036.739.1 1.478a.19.19 0 0 0 .087.152c.176.123.346.252.52.375a28.865 28.865 0 0 0 8.2 4.106c.135.043.114.044.193-.067q.412-.575.786-1.176c.361-.578.7-1.169 1-1.78.046-.092.044-.094-.048-.133l-.037-.014a18.669 18.669 0 0 1-2.513-1.2 2.748 2.748 0 0 1-.339-.208l.015-.027c.217-.172.433-.343.644-.518.056-.046.1-.024.145 0 .539.249 1.082.476 1.636.683a20.89 20.89 0 0 0 5.54 1.246 20.321 20.321 0 0 0 5.407-.285 20.585 20.585 0 0 0 3.823-1.112q.626-.248 1.236-.535c.046-.021.085-.043.133 0 .22.181.442.358.672.542a.317.317 0 0 1-.037.036 18.818 18.818 0 0 1-2.86 1.4c-.094.036-.1.039-.048.133.068.136.138.269.208.4a21.885 21.885 0 0 0 1.577 2.552c.078.107.049.111.194.065q.425-.135.847-.281a28.311 28.311 0 0 0 4.314-1.913 30.487 30.487 0 0 0 3.554-2.286.213.213 0 0 0 .094-.164c.06-.7.106-1.394.125-2.092s.017-1.4-.007-2.1" transform="translate(1178.912 9656.947)" style="fill:#fc4045"/>
    </g>
</svg>
