<svg xmlns="http://www.w3.org/2000/svg" width="67" height="67" viewBox="0 0 67 67">
    <g data-name="Group 515" transform="translate(-1438 -10279)">
        <rect data-name="Rectangle 27" width="67" height="67" rx="14" transform="translate(1438 10279)" style="fill:#24342f"/>
        <g data-name="Group 20">
            <path data-name="Rectangle 24" transform="translate(1456.644 10306.783)" style="fill:#fc4045" d="M0 0h6.675v21.57H0z"/>
            <path data-name="Path 32" d="M374.437 647.064a3.98 3.98 0 1 0-3.95-3.98 3.965 3.965 0 0 0 3.95 3.98" transform="translate(1085.513 9656.896)" style="fill:#fc4045"/>
            <path data-name="Path 33" d="M383.689 655.949c0-3.032 1.4-4.839 4.069-4.839 2.455 0 3.634 1.735 3.634 4.839v11.322h6.645v-13.657c0-5.777-3.275-8.571-7.848-8.571a7.523 7.523 0 0 0-6.5 3.564v-2.9h-6.4v21.569h6.4z" transform="translate(1090.303 9661.082)" style="fill:#fc4045"/>
        </g>
    </g>
</svg>
