<svg xmlns="http://www.w3.org/2000/svg" width="67" height="67" viewBox="0 0 67 67">
    <g data-name="Group 518" transform="translate(-1714 -10279)">
        <rect data-name="Rectangle 30" width="67" height="67" rx="14" transform="translate(1714 10279)" style="fill:#24342f"/>
        <path data-name="Path 39" d="M528.007 661.367a2.784 2.784 0 1 1 2.782-2.782 2.784 2.784 0 0 1-2.782 2.782m1.474 4.822a12.6 12.6 0 0 1-15.1 0 .874.874 0 0 1 1.1-1.359 10.386 10.386 0 0 0 6.45 2.122 10.233 10.233 0 0 0 6.448-2.122.874.874 0 1 1 1.1 1.359m-16.816-7.6a2.784 2.784 0 1 1 2.784 2.782 2.786 2.786 0 0 1-2.784-2.782m27.639-3.108a3.945 3.945 0 0 0-6.668-2.857 19.47 19.47 0 0 0-11.283-3.576l2.061-8.62 6.094 1.456v.024a2.936 2.936 0 1 0 .314-1.309l-7.374-1.783-.005.027h-.005L521 649.058a19.223 19.223 0 0 0-10.927 3.682 3.946 3.946 0 1 0-4.089 6.481 8.009 8.009 0 0 0-.08 1.128c0 6.249 7.177 11.314 16.032 11.314s16.03-5.064 16.03-11.314a8.134 8.134 0 0 0-.094-1.226 3.949 3.949 0 0 0 2.434-3.646" transform="translate(1225.719 9657.189)" style="fill:#fc4045"/>
    </g>
</svg>
