<svg xmlns="http://www.w3.org/2000/svg" width="67" height="67" viewBox="0 0 67 67">
    <g data-name="Group 516" transform="translate(-1530 -10279)">
        <rect data-name="Rectangle 28" width="67" height="67" rx="14" transform="translate(1530 10279)" style="fill:#24342f"/>
        <g data-name="Group 19">
            <path data-name="Path 36" d="m420.291 651.967 2.792 8.542a.906.906 0 0 0 1.437.418l8.341-6.885s-8.861-3.457-8.861-3.27a28.118 28.118 0 0 1-3.708 1.195" transform="translate(1136.014 9663.517)" style="fill:#fc4045"/>
            <path data-name="Path 37" d="M445.729 641.869c-5.446 2.155-23.028 9.358-29.681 12.087a1.017 1.017 0 0 0 .078 1.909l7.6 2.421 2.784 8.513a.922.922 0 0 0 .711.624c.256.048.634-6.9.634-6.9s7.984 5.922 11.774 8.719a1.577 1.577 0 0 0 2.485-.968c1.13-5.816 3.951-20.358 4.914-25.329a.962.962 0 0 0-1.3-1.081" transform="translate(1132.58 9657.2)" style="fill:#fc4045"/>
            <path data-name="Path 38" d="M423.786 664.847c.254.048.634-6.9.634-6.9l13.119-12.324a.1.1 0 0 0-.121-.16l-17.126 10.243 2.784 8.515a.918.918 0 0 0 .711.622" transform="translate(1136.014 9659.774)" style="fill:#fd9093"/>
        </g>
    </g>
</svg>
