<svg xmlns="http://www.w3.org/2000/svg" width="67" height="67" viewBox="0 0 67 67">
    <g data-name="Group 906" transform="translate(-499 -1032)">
        <circle data-name="Ellipse 35" cx="33.5" cy="33.5" r="33.5" transform="translate(499 1032)" style="fill:#fccb00;opacity:.4"/>
        <g data-name="Group 862">
            <path data-name="Path 973" d="M408 115.162v-1.351a.47.47 0 0 0 .038-.089 4.562 4.562 0 0 1 1.365-2.352q6.3-6.262 12.582-12.548c.866-.864 1.718-1.743 2.6-2.586a5.848 5.848 0 0 1 4.132-1.678c2.964-.011 5.929-.016 8.894 0a3.3 3.3 0 0 1 3.035 1.884 7.043 7.043 0 0 1 .353.962v10.1c-.071.312-.126.629-.215.936a6.392 6.392 0 0 1-1.706 2.791q-7.509 7.477-15 14.969c-.084.083-.167.166-.253.247a3.918 3.918 0 0 1-1.727.954c-.124.033-.246.072-.368.109h-1.354c-.1-.033-.2-.072-.3-.1a3.962 3.962 0 0 1-1.857-1.045q-4.537-4.523-9.068-9.051a3.918 3.918 0 0 1-1.048-1.853c-.031-.097-.07-.197-.103-.299zm22.051-13.078a3.393 3.393 0 1 0 6.786.047 3.393 3.393 0 0 0-6.786-.047z" transform="translate(107 954.451)" style="fill:#c39e04"/>
        </g>
    </g>
</svg>
