<svg xmlns="http://www.w3.org/2000/svg" width="67" height="67" viewBox="0 0 67 67">
    <g data-name="Group 903" transform="translate(-1356 -1032)">
        <circle data-name="Ellipse 38" cx="33.5" cy="33.5" r="33.5" transform="translate(1356 1032)" style="opacity:.3;fill:#de107f"/>
        <g data-name="Group 868">
            <path data-name="Path 983" d="M656.824 207.041h-4.177a3.9 3.9 0 0 1-2.735-1.027 3.685 3.685 0 0 1-1.189-2.176 5.568 5.568 0 0 1-.065-.894c0-4.908.012-9.815-.01-14.723a4.013 4.013 0 0 1 3.063-3.937 4.631 4.631 0 0 1 1.021-.111c2.487-.009 4.974 0 7.461 0h.425a2.967 2.967 0 0 0 .082-.364 3.977 3.977 0 0 1 7.626-1.136 7.609 7.609 0 0 1 .282 1.055c.032.128.048.261.078.424.144.007.285.021.425.021h7.228a3.935 3.935 0 0 1 2.712 1.006 3.791 3.791 0 0 1 1.337 2.9c.015 2.065 0 4.13 0 6.2 0 2.92-.011 5.84 0 8.76a3.981 3.981 0 0 1-2.995 3.887 4.247 4.247 0 0 1-.953.117c-1.366.013-2.731.005-4.1.005h-.4c.064.215.115.394.171.57q.436 1.363.875 2.724a1.952 1.952 0 0 1-.463 2.063 2.009 2.009 0 0 1-3.292-.518 10.736 10.736 0 0 1-.453-1.285c-.355-1.086-.7-2.174-1.053-3.261-.094-.29-.1-.293-.391-.293h-5.9c-.312 0-.315 0-.415.31l-1.258 3.894a4.9 4.9 0 0 1-.244.653 2.035 2.035 0 0 1-3.82-.467 2.061 2.061 0 0 1 .084-1.144q.462-1.442.921-2.884c.048-.11.077-.216.122-.369zm4.97-11.924c.094.11.154.174.207.244q.49.653.976 1.308c.628.847 1.26 1.692 1.881 2.544a1.353 1.353 0 0 0 2.192.193c1.271-1.224 2.578-2.411 3.87-3.613.658-.612 1.313-1.229 1.976-1.835a1.2 1.2 0 0 0 .425-1.067 1.447 1.447 0 0 0-.7-1.044 1.132 1.132 0 0 0-1.416.077c-.144.122-.285.248-.424.375l-4.272 3.914c-.063.058-.137.1-.245.184-.039-.061-.065-.111-.1-.155q-1.6-2.07-3.191-4.141a1.055 1.055 0 0 0-.647-.437 1.442 1.442 0 0 0-1.354.378c-.234.236-.456.486-.685.727l-4.388 4.605a1.446 1.446 0 0 0-.43 1.143 1.267 1.267 0 0 0 1.889 1.053 2.006 2.006 0 0 0 .441-.35q1.846-1.9 3.684-3.8c.093-.098.19-.186.312-.303z" style="fill:#de107f" transform="translate(725.353 868.781)"/>
        </g>
    </g>
</svg>
