<svg xmlns="http://www.w3.org/2000/svg" width="67" height="67" viewBox="0 0 67 67">
    <g data-name="Group 907" transform="translate(-213 -1032)">
        <circle data-name="Ellipse 34" cx="33.5" cy="33.5" r="33.5" transform="translate(213 1032)" style="fill:#00d6c4;opacity:.4"/>
        <path data-name="Path 970" d="m33.524 11.045-15.633 9.381-15.632-9.381A1.491 1.491 0 0 0 .724 13.6l16.4 9.84a1.491 1.491 0 0 0 1.536 0l16.4-9.84a1.491 1.491 0 0 0-1.534-2.557z" transform="translate(229 1052.979)" style="fill:#028f83"/>
        <path data-name="Path 971" d="m33.524 15.613-15.633 9.38-15.632-9.38A1.491 1.491 0 0 0 .724 18.17l16.4 9.84a1.491 1.491 0 0 0 1.536 0l16.4-9.84a1.491 1.491 0 0 0-1.534-2.557z" transform="translate(229 1055.221)" style="fill:#028f83"/>
        <path data-name="Path 972" d="m.723 12.348 14.886 8.932a4.428 4.428 0 0 0 4.565 0l14.886-8.932a1.491 1.491 0 0 0 0-2.556L20.174.86a4.433 4.433 0 0 0-4.565 0L.723 9.793a1.491 1.491 0 0 0 0 2.556z" transform="translate(229 1047.772)" style="fill:#028f83"/>
    </g>
</svg>
