<svg xmlns="http://www.w3.org/2000/svg" width="67" height="67" viewBox="0 0 67 67">
    <g data-name="Group 905" transform="translate(-784 -1032)">
        <circle data-name="Ellipse 36" cx="33.5" cy="33.5" r="33.5" transform="translate(784 1032)" style="fill:#5f49d2;opacity:.35"/>
        <g data-name="Group 863">
            <path data-name="Path 974" d="M652.431 190.638a5.425 5.425 0 0 1 .631.521q2.606 2.884 5.194 5.783a1.677 1.677 0 0 1 .176 2.213 1.561 1.561 0 0 1-1.274.675c-.466.013-.934 0-1.444 0 0 .149-.013.282-.013.415v12.011c0 2.889-.014 5.777.008 8.666a2.285 2.285 0 0 1-2.324 2.359c-.807 0-1.616-.031-2.422.01a2.394 2.394 0 0 1-2.452-2.436c.029-6.287.013-12.574.013-18.862v-1.816c0-.1-.01-.207-.016-.346h-1.381a1.6 1.6 0 0 1-1.031-.358 1.658 1.658 0 0 1-.3-2.307c.386-.492.82-.947 1.238-1.413q2.073-2.313 4.153-4.619a5.106 5.106 0 0 1 .609-.5z" transform="translate(173.855 858.362)" style="fill:#422cb7"/>
            <path data-name="Path 975" d="M574.859 344.338c0 2.623-.013 5.246.007 7.869a2.352 2.352 0 0 1-1.837 2.3 2.007 2.007 0 0 1-.409.044c-.892 0-1.784.008-2.677 0a2.28 2.28 0 0 1-2.258-2.254q-.008-7.964 0-15.929a2.278 2.278 0 0 1 2.235-2.243q1.338-.013 2.677 0a2.279 2.279 0 0 1 2.258 2.253c.008 2.655 0 5.31 0 7.965z" transform="translate(245.009 727.098)" style="fill:#422cb7"/>
            <path data-name="Path 976" d="M461.025 401.689c0 1.773-.017 3.547.007 5.32a2.347 2.347 0 0 1-1.832 2.3 2.175 2.175 0 0 1-.441.046c-.881 0-1.763.008-2.644 0a2.281 2.281 0 0 1-2.264-2.28c0-3.589 0-7.178-.005-10.768a2.326 2.326 0 0 1 2.3-2.285q1.29.019 2.581 0a2.329 2.329 0 0 1 2.3 2.316c-.015 1.783-.002 3.567-.002 5.351z" transform="translate(349.154 672.292)" style="fill:#422cb7"/>
        </g>
    </g>
</svg>
