<svg xmlns="http://www.w3.org/2000/svg" width="67" height="67" viewBox="0 0 67 67">
    <g data-name="Group 904" transform="translate(-1070 -1032)">
        <circle data-name="Ellipse 37" cx="33.5" cy="33.5" r="33.5" transform="translate(1070 1032)" style="fill:#fa7374;opacity:.4"/>
        <g data-name="Group 867">
            <path data-name="Path 977" d="M533.561 317.525c-2.954 0-5.909-.023-8.863.01a2.947 2.947 0 0 1-2.9-1.95 6.257 6.257 0 0 1-.473-2.359c.005-.573-.024-1.148.008-1.72a7.393 7.393 0 0 1 4.54-6.737 5.023 5.023 0 0 1 1.863-.487 4 4 0 0 1 1.909.443 12.281 12.281 0 0 0 1.746.718 7.845 7.845 0 0 0 5.781-.514 5.86 5.86 0 0 1 1.6-.6 3.879 3.879 0 0 1 1.99.217 7.42 7.42 0 0 1 5 5.825 5.526 5.526 0 0 1 .107 1.137c-.007.895-.015 1.791-.083 2.683a4.473 4.473 0 0 1-.658 1.947 2.666 2.666 0 0 1-2.4 1.384c-3.057.008-6.114 0-9.172 0z" transform="translate(570.113 765.155)" style="fill:#e64e4f"/>
            <path data-name="Path 978" d="M553.5 153.147a8.5 8.5 0 1 1 8.552 8.524 8.484 8.484 0 0 1-8.552-8.524z" transform="translate(541.724 905.962)" style="fill:#e64e4f"/>
            <path data-name="Path 979" d="M476.189 263.016c-.572.266-1.105.479-1.605.752a10.027 10.027 0 0 0-5.172 6.942c-.094.423-.086.428-.5.43a9.282 9.282 0 0 1-1.19-.019 2.377 2.377 0 0 1-1.942-1.477 4.542 4.542 0 0 1-.419-1.656 8.854 8.854 0 0 1 .467-4.075 5.967 5.967 0 0 1 4.221-3.613 2.969 2.969 0 0 1 2.138.268 6.409 6.409 0 0 0 2.371.774.7.7 0 0 1 .542.321c.271.382.59.73.888 1.093.058.076.118.155.201.26z" transform="translate(619.513 804.03)" style="fill:#e64e4f"/>
            <path data-name="Path 980" d="M693.933 263.009c.386-.49.758-.981 1.156-1.449a.683.683 0 0 1 .419-.2 6.755 6.755 0 0 0 2.412-.79 2.988 2.988 0 0 1 2.267-.22 5.931 5.931 0 0 1 4.4 4.691 8.787 8.787 0 0 1 0 3.762 3.179 3.179 0 0 1-.847 1.666 2.324 2.324 0 0 1-1.582.678c-.352.014-.706.009-1.058 0s-.359-.02-.427-.366a10.156 10.156 0 0 0-6.2-7.489 12.68 12.68 0 0 1-.523-.226c-.01-.002-.012-.045-.017-.057z" transform="translate(417.844 804.016)" style="fill:#e64e4f"/>
            <path data-name="Path 981" d="M496.825 142.413a6.82 6.82 0 0 1-4.786-5.241 7 7 0 0 1 3.141-7.348 6.838 6.838 0 0 1 6.65-.365q-6.873 4.773-5.005 12.954z" transform="translate(596.068 919.982)" style="fill:#e64e4f"/>
            <path data-name="Path 982" d="M679.977 142.377q1.862-8.146-5.007-12.921a6.8 6.8 0 0 1 6.748.43 7.034 7.034 0 0 1 2.963 7.613 6.757 6.757 0 0 1-4.704 4.878z" transform="translate(434.572 919.99)" style="fill:#e64e4f"/>
        </g>
    </g>
</svg>
