<svg xmlns="http://www.w3.org/2000/svg" width="67" height="67" viewBox="0 0 67 67">
    <g data-name="Group 870">
        <path data-name="Path 956" d="M33.5 0A33.5 33.5 0 1 1 0 33.5 33.5 33.5 0 0 1 33.5 0z" style="fill:#b34ac0;opacity:.4"/>
        <g data-name="Group 869">
            <path data-name="Path 984" d="M509.931 208.23a4.646 4.646 0 0 1 2.161-2.467 14.548 14.548 0 0 1 4.462-1.784 23.871 23.871 0 0 1 6.326-.649 22.217 22.217 0 0 1 7.13 1.275 9.743 9.743 0 0 1 3.5 2.019 4.384 4.384 0 0 1 .829 1.076 2.116 2.116 0 0 1-.384 2.469 7.007 7.007 0 0 1-2.272 1.744 17.361 17.361 0 0 1-5.191 1.664 24.5 24.5 0 0 1-5.061.346 22.321 22.321 0 0 1-6.949-1.272 11.5 11.5 0 0 1-2.9-1.506 4.191 4.191 0 0 1-1.652-2.123z" transform="translate(-494.931 -186.319)" style="fill:#a62fb5"/>
            <path data-name="Path 985" d="M509.931 277.993a2.006 2.006 0 0 1 .289.125 18.321 18.321 0 0 0 5.555 2.241 26.491 26.491 0 0 0 4.555.666 27.513 27.513 0 0 0 4.68-.071 2.73 2.73 0 0 1 .324-.008.469.469 0 0 1 .12.045c-.064.1-.114.192-.178.273a13.365 13.365 0 0 0-1.822 3.057.484.484 0 0 1-.508.34 24.269 24.269 0 0 1-6.5-.667 13.791 13.791 0 0 1-4.833-2.088 4.368 4.368 0 0 1-1.678-2.107z" transform="translate(-494.931 -250.019)" style="fill:#a62fb5"/>
            <path data-name="Path 986" d="M509.931 373.77a1.208 1.208 0 0 1 .227.088 18.38 18.38 0 0 0 5.892 2.345 23.018 23.018 0 0 0 4.164.589c.924.039 1.848.054 2.773.066a.382.382 0 0 1 .414.254 13.521 13.521 0 0 0 1.684 2.928c.042.055.071.12.13.222-.2.03-.357.064-.52.077a29.346 29.346 0 0 1-4.427.03 21.83 21.83 0 0 1-4.84-.879 12.78 12.78 0 0 1-3.766-1.764 4.4 4.4 0 0 1-1.732-2.15z" transform="translate(-494.931 -331.722)" style="fill:#a62fb5"/>
            <path data-name="Path 987" d="M509.931 325.636c.774.41 1.532.854 2.325 1.224a20.1 20.1 0 0 0 4.708 1.435 32.09 32.09 0 0 0 5.052.49c.1 0 .191.013.305.02v3.516a1.389 1.389 0 0 1-.245.035 21.824 21.824 0 0 1-8.47-1.641 7.668 7.668 0 0 1-2.978-2.039 8.76 8.76 0 0 1-.7-1.163z" transform="translate(-494.931 -290.661)" style="fill:#a62fb5"/>
            <path data-name="Path 988" d="M638.708 297.792a10.58 10.58 0 1 1-10.573-10.584 10.558 10.558 0 0 1 10.573 10.584z" transform="translate(-586.734 -257.88)" style="fill:#a62fb5"/>
        </g>
    </g>
</svg>
